<svg width="1613" height="441" viewBox="0 0 1613 441" fill="none" xmlns="http://www.w3.org/2000/svg">
<g filter="url(#filter0_d_2_165)">
<mask id="mask0_2_165" style="mask-type:alpha" maskUnits="userSpaceOnUse" x="4" y="-1" width="1605" height="465">
<path fill-rule="evenodd" clip-rule="evenodd" d="M1324.33 -0.000244141L1313.86 41.3676L1296.23 86.072H1283.11L1272.49 75.9327L1217.29 86.973V117.683L1215.71 116.988V70.3821L1161.87 43.4621L1138.19 46.695L1028.97 76.4597L1005.13 80.1981L962.833 97.0163L968.842 208.417L963.756 202.786H910.22V212.049H863.557L833.171 220.933L819.302 237.114L808.204 302.69L795.68 326.396L736.463 338.631L697.408 372.272H102.359L81.0198 388.695L51.9937 402.47L4.49976 435.188V463.815L1600.23 456.627L1608.21 388.128L1571.37 374.12L1565.27 350.59V183.315H1550.01L1520 163.418V89.6111L1496.88 53.4249L1411.48 29.5124L1384.14 52.0239L1380.85 115.592L1354.54 56.4053L1346.39 11.3549L1324.33 -0.000244141ZM920.22 212.786H953.756V223.986L979.238 215.492L973.205 103.654L1007.79 89.9039L1031.2 86.2319L1139.66 53.4621H1159.51L1205.71 76.5624V123.513L1227.29 133.008V95.171L1269.35 86.7589L1279.11 96.072H1303.04L1323.39 44.441L1328.06 12.0991L1339.95 15.2296L1344.77 59.045L1372.65 121.775L1379.03 153.652L1388.92 152.93L1393.9 56.9422L1413.81 40.5491L1490.51 62.0254L1510 92.5329V168.786L1546.99 193.315H1555.73V352.867L1562.26 382.848L1590.23 394.125V446.627L14.4998 453.815V440.443L57.0061 411.16L86.9797 396.936L106.641 382.272H700.593L740.537 348L802.32 335.235L817.796 305.941L828.699 241.517L838.829 229.697L864.989 222.049H920.22V212.786Z" fill="white"/>
</mask>
<g mask="url(#mask0_2_165)">
<rect x="1725" y="-568.685" width="1322" height="1776" transform="rotate(90 1725 -568.685)" fill="white"/>
</g>
</g>
<defs>
<filter id="filter0_d_2_165" x="0.499756" y="-0.000244141" width="1611.71" height="471.816" filterUnits="userSpaceOnUse" color-interpolation-filters="sRGB">
<feFlood flood-opacity="0" result="BackgroundImageFix"/>
<feColorMatrix in="SourceAlpha" type="matrix" values="0 0 0 0 0 0 0 0 0 0 0 0 0 0 0 0 0 0 127 0" result="hardAlpha"/>
<feOffset dy="4"/>
<feGaussianBlur stdDeviation="2"/>
<feComposite in2="hardAlpha" operator="out"/>
<feColorMatrix type="matrix" values="0 0 0 0 0 0 0 0 0 0 0 0 0 0 0 0 0 0 0.25 0"/>
<feBlend mode="normal" in2="BackgroundImageFix" result="effect1_dropShadow_2_165"/>
<feBlend mode="normal" in="SourceGraphic" in2="effect1_dropShadow_2_165" result="shape"/>
</filter>
</defs>
</svg>
